<svg xmlns="http://www.w3.org/2000/svg" width="800" height="480" viewBox="0 0 800 480">
  <defs>
    <linearGradient id="bg" x1="0%" y1="0%" x2="100%" y2="100%">
      <stop offset="0%" stop-color="#0f172a"/>
      <stop offset="100%" stop-color="#1e3a8a"/>
    </linearGradient>
    <linearGradient id="iconGrad" x1="0%" y1="0%" x2="100%" y2="100%">
      <stop offset="0%" stop-color="#60a5fa"/>
      <stop offset="100%" stop-color="#38bdf8"/>
    </linearGradient>
  </defs>
  <rect width="800" height="480" fill="url(#bg)"/>
  <circle cx="620" cy="240" r="160" fill="#2563eb" opacity="0.12"/>
  <g transform="translate(520, 140) scale(6)" fill="none" stroke="url(#iconGrad)" stroke-width="1.5" stroke-linecap="round" stroke-linejoin="round">
    <path d="M19 17h2c.6 0 1-.4 1-1v-3c0-.9-.7-1.7-1.5-1.9C18.7 10.6 16 10 16 10s-1.3-1.4-2.2-2.3c-.5-.4-1.1-.7-1.8-.7H5c-.6 0-1.1.4-1.4.9l-1.4 2.9A3.7 3.7 0 0 0 2 12v4c0 .6.4 1 1 1h2"/>
    <circle cx="7" cy="17" r="2"/>
    <path d="M9 17h6"/>
    <circle cx="17" cy="17" r="2"/>
  </g>
  <text x="48" y="56" fill="#60a5fa" font-family="Inter,Arial,sans-serif" font-size="14" font-weight="600">DATA SCIENCE</text>
  <text x="48" y="120" fill="#f8fafc" font-family="Inter,Arial,sans-serif" font-size="38" font-weight="700">Used Car Price</text>
  <text x="48" y="168" fill="#f8fafc" font-family="Inter,Arial,sans-serif" font-size="38" font-weight="700">Analysis</text>
  <text x="48" y="220" fill="#94a3b8" font-family="Inter,Arial,sans-serif" font-size="17">Random Forest · 4340+ Records</text>
</svg>
