<svg xmlns="http://www.w3.org/2000/svg" width="800" height="480" viewBox="0 0 800 480">
  <defs>
    <linearGradient id="bg" x1="0%" y1="0%" x2="100%" y2="100%">
      <stop offset="0%" stop-color="#042f2e"/>
      <stop offset="100%" stop-color="#134e4a"/>
    </linearGradient>
    <linearGradient id="iconGrad" x1="0%" y1="0%" x2="100%" y2="100%">
      <stop offset="0%" stop-color="#5eead4"/>
      <stop offset="100%" stop-color="#2dd4bf"/>
    </linearGradient>
  </defs>
  <rect width="800" height="480" fill="url(#bg)"/>
  <circle cx="620" cy="240" r="160" fill="#14b8a6" opacity="0.15"/>
  <g transform="translate(500, 120) scale(5.5)" fill="none" stroke="url(#iconGrad)" stroke-width="1.5" stroke-linecap="round" stroke-linejoin="round">
    <path d="M9.937 15.5A2 2 0 0 0 8.5 14.063l-6.135-1.582a.5.5 0 0 1 0-.962L8.5 9.936A2 2 0 0 0 9.937 8.5l1.582-6.135a.5.5 0 0 1 .963 0L14.063 8.5A2 2 0 0 0 15.5 9.937l6.135 1.581a.5.5 0 0 1 0 .964L15.5 14.063a2 2 0 0 0-1.437 1.437l-1.582 6.135a.5.5 0 0 1-.963 0z"/>
    <path d="M20 3v4"/><path d="M22 5h-4"/><path d="M4 17v2"/><path d="M5 18H3"/>
  </g>
  <text x="48" y="56" fill="#5eead4" font-family="Inter,Arial,sans-serif" font-size="14" font-weight="600">AI / ML</text>
  <text x="48" y="130" fill="#f8fafc" font-family="Inter,Arial,sans-serif" font-size="42" font-weight="700">PromptCraft</text>
  <text x="48" y="178" fill="#94a3b8" font-family="Inter,Arial,sans-serif" font-size="17">DALL·E 3 Image Generation</text>
</svg>
