<svg xmlns="http://www.w3.org/2000/svg" width="800" height="480" viewBox="0 0 800 480">
  <defs>
    <linearGradient id="bg" x1="0%" y1="0%" x2="100%" y2="100%">
      <stop offset="0%" stop-color="#78350f"/>
      <stop offset="100%" stop-color="#92400e"/>
    </linearGradient>
    <linearGradient id="iconGrad" x1="0%" y1="0%" x2="100%" y2="100%">
      <stop offset="0%" stop-color="#fcd34d"/>
      <stop offset="100%" stop-color="#fbbf24"/>
    </linearGradient>
  </defs>
  <rect width="800" height="480" fill="url(#bg)"/>
  <circle cx="620" cy="240" r="160" fill="#f59e0b" opacity="0.15"/>
  <g transform="translate(510, 120) scale(5.5)" fill="none" stroke="url(#iconGrad)" stroke-width="1.5" stroke-linecap="round" stroke-linejoin="round">
    <path d="M17.8 19.2 16 11l3.5-3.5C21 6 21.5 4 21 3c-1-.5-3 0-4.5 1.5L13 8 4.8 6.2c-.5-.1-.9.1-1.1.5l-.3.5c-.2.5-.1 1 .3 1.3L9 12l-2 3H4l-1 1 3 2 2 3 1-1v-3l3-2 3.5 5.3c.3.4.8.5 1.3.3l.5-.2c.4-.3.6-.7.5-1.2z"/>
  </g>
  <text x="48" y="56" fill="#fcd34d" font-family="Inter,Arial,sans-serif" font-size="14" font-weight="600">SIH 2024 · FULL STACK</text>
  <text x="48" y="130" fill="#f8fafc" font-family="Inter,Arial,sans-serif" font-size="42" font-weight="700">TripGo</text>
  <text x="48" y="178" fill="#94a3b8" font-family="Inter,Arial,sans-serif" font-size="17">Travel & Booking Platform</text>
</svg>
